<svg width="412" height="384" viewBox="0 0 412 384" fill="none" xmlns="http://www.w3.org/2000/svg">
<g filter="url(#filter0_f_4601_9008)">
<circle cx="205" cy="192" r="64" fill="#338EF7"/>
</g>
<g opacity="0.25" filter="url(#filter1_d_4601_9008)">
<circle cx="205" cy="192" r="16" fill="#006FEE"/>
</g>
<g opacity="0.25" filter="url(#filter2_d_4601_9008)">
<circle cx="205" cy="192" r="32" fill="#005BC4"/>
</g>
<g opacity="0.25" filter="url(#filter3_d_4601_9008)">
<circle cx="205" cy="192" r="48" fill="url(#paint0_linear_4601_9008)" shape-rendering="crispEdges"/>
</g>
<circle opacity="0.25" cx="205" cy="192" r="64" fill="url(#paint1_linear_4601_9008)"/>
<g filter="url(#filter4_b_4601_9008)">
<path d="M170 172C170 163.163 177.163 156 186 156H226C234.837 156 242 163.163 242 172V212C242 220.837 234.837 228 226 228H186C177.163 228 170 220.837 170 212V172Z" fill="white" fill-opacity="0.05"/>
<path d="M186 157.5H226C234.008 157.5 240.5 163.992 240.5 172V212C240.5 220.008 234.008 226.5 226 226.5H186C177.992 226.5 171.5 220.008 171.5 212V172C171.5 163.992 177.992 157.5 186 157.5Z" stroke="#66AAF9" stroke-width="3"/>
<path d="M193.5 175.5V199.5H217.5V175.5H193.5ZM196.5 178.5H214.5V196.5H196.5V178.5ZM210.451 182.851L204 189.299L200.549 185.851L198.451 188.101L202.951 192.601L204 193.649L205.049 192.601L212.549 185.101L210.451 182.851ZM184.5 196.5V208.5H187.5V199.5H190.5V196.5H184.5ZM220.5 196.5V199.5H223.5V208.5H226.5V196.5H220.5ZM190.5 202.5V205.5H220.5V202.5H190.5Z" fill="#C6EAFF"/>
</g>
<defs>
<filter id="filter0_f_4601_9008" x="13" y="0" width="384" height="384" filterUnits="userSpaceOnUse" color-interpolation-filters="sRGB">
<feFlood flood-opacity="0" result="BackgroundImageFix"/>
<feBlend mode="normal" in="SourceGraphic" in2="BackgroundImageFix" result="shape"/>
<feGaussianBlur stdDeviation="64" result="effect1_foregroundBlur_4601_9008"/>
</filter>
<filter id="filter1_d_4601_9008" x="185" y="176" width="40" height="40" filterUnits="userSpaceOnUse" color-interpolation-filters="sRGB">
<feFlood flood-opacity="0" result="BackgroundImageFix"/>
<feColorMatrix in="SourceAlpha" type="matrix" values="0 0 0 0 0 0 0 0 0 0 0 0 0 0 0 0 0 0 127 0" result="hardAlpha"/>
<feOffset dy="4"/>
<feGaussianBlur stdDeviation="2"/>
<feComposite in2="hardAlpha" operator="out"/>
<feColorMatrix type="matrix" values="0 0 0 0 0 0 0 0 0 0 0 0 0 0 0 0 0 0 0.25 0"/>
<feBlend mode="normal" in2="BackgroundImageFix" result="effect1_dropShadow_4601_9008"/>
<feBlend mode="normal" in="SourceGraphic" in2="effect1_dropShadow_4601_9008" result="shape"/>
</filter>
<filter id="filter2_d_4601_9008" x="169" y="160" width="72" height="72" filterUnits="userSpaceOnUse" color-interpolation-filters="sRGB">
<feFlood flood-opacity="0" result="BackgroundImageFix"/>
<feColorMatrix in="SourceAlpha" type="matrix" values="0 0 0 0 0 0 0 0 0 0 0 0 0 0 0 0 0 0 127 0" result="hardAlpha"/>
<feOffset dy="4"/>
<feGaussianBlur stdDeviation="2"/>
<feComposite in2="hardAlpha" operator="out"/>
<feColorMatrix type="matrix" values="0 0 0 0 0 0 0 0 0 0 0 0 0 0 0 0 0 0 0.25 0"/>
<feBlend mode="normal" in2="BackgroundImageFix" result="effect1_dropShadow_4601_9008"/>
<feBlend mode="normal" in="SourceGraphic" in2="effect1_dropShadow_4601_9008" result="shape"/>
</filter>
<filter id="filter3_d_4601_9008" x="153" y="144" width="104" height="104" filterUnits="userSpaceOnUse" color-interpolation-filters="sRGB">
<feFlood flood-opacity="0" result="BackgroundImageFix"/>
<feColorMatrix in="SourceAlpha" type="matrix" values="0 0 0 0 0 0 0 0 0 0 0 0 0 0 0 0 0 0 127 0" result="hardAlpha"/>
<feOffset dy="4"/>
<feGaussianBlur stdDeviation="2"/>
<feComposite in2="hardAlpha" operator="out"/>
<feColorMatrix type="matrix" values="0 0 0 0 0 0 0 0 0 0 0 0 0 0 0 0 0 0 0.25 0"/>
<feBlend mode="normal" in2="BackgroundImageFix" result="effect1_dropShadow_4601_9008"/>
<feBlend mode="normal" in="SourceGraphic" in2="effect1_dropShadow_4601_9008" result="shape"/>
</filter>
<filter id="filter4_b_4601_9008" x="154" y="140" width="104" height="104" filterUnits="userSpaceOnUse" color-interpolation-filters="sRGB">
<feFlood flood-opacity="0" result="BackgroundImageFix"/>
<feGaussianBlur in="BackgroundImageFix" stdDeviation="8"/>
<feComposite in2="SourceAlpha" operator="in" result="effect1_backgroundBlur_4601_9008"/>
<feBlend mode="normal" in="SourceGraphic" in2="effect1_backgroundBlur_4601_9008" result="shape"/>
</filter>
<linearGradient id="paint0_linear_4601_9008" x1="205" y1="144" x2="205" y2="240" gradientUnits="userSpaceOnUse">
<stop stop-color="#004493"/>
<stop offset="1" stop-color="#00152D" stop-opacity="0"/>
</linearGradient>
<linearGradient id="paint1_linear_4601_9008" x1="205" y1="128" x2="205" y2="256" gradientUnits="userSpaceOnUse">
<stop stop-color="#006FEE"/>
<stop offset="1" stop-color="#4C2B6D" stop-opacity="0"/>
</linearGradient>
</defs>
</svg>
