<svg width="821" height="610" viewBox="0 0 821 610" fill="none" xmlns="http://www.w3.org/2000/svg">
<path d="M677.755 122.971C685.723 138.005 686.086 156.311 679.679 176.697C673.27 197.089 660.117 219.444 641.252 242.398C603.527 288.302 543.156 336.366 469.061 375.64C394.965 414.914 321.3 437.896 262.134 443.349C232.548 446.075 206.664 444.412 186.19 438.269C165.723 432.128 150.776 421.552 142.807 406.518C134.839 391.484 134.477 373.178 140.884 352.793C147.293 332.4 160.445 310.045 179.31 287.091C217.035 241.187 277.406 193.123 351.502 153.849C425.597 114.575 499.263 91.5935 558.428 86.1406C588.015 83.4138 613.898 85.0775 634.372 91.2205C654.839 97.3613 669.786 107.937 677.755 122.971Z" stroke="url(#paint0_linear_3990_3146)" stroke-width="3"/>
<path d="M754.532 375.898C749.214 392.39 734.601 405.098 712.577 413.91C690.557 422.721 661.198 427.606 626.533 428.491C557.208 430.262 466.779 416.034 371.688 385.371C276.598 354.708 194.892 313.43 139.66 271.495C112.043 250.525 91.0675 229.409 78.3422 209.395C65.6148 189.377 61.1785 170.527 66.4966 154.034C71.8147 137.542 86.427 124.835 108.451 116.022C130.471 107.212 159.831 102.327 194.496 101.441C263.821 99.6703 354.25 113.898 449.34 144.561C544.43 175.224 626.136 216.503 681.368 258.438C708.986 279.407 729.961 300.523 742.686 320.538C755.414 340.556 759.85 359.406 754.532 375.898Z" stroke="url(#paint1_linear_3990_3146)"/>
<path d="M819.498 216.823C821.089 230.421 811.384 244.837 792.084 259.278C772.818 273.694 744.142 288.019 708.164 301.446C636.214 328.298 535.168 351.525 422.083 364.75C308.999 377.976 205.32 378.692 129.116 369.167C91.0099 364.404 59.8024 357.083 37.73 347.502C15.6193 337.904 2.84965 326.117 1.25929 312.518C-0.331073 298.92 9.37409 284.504 28.6733 270.063C47.9392 255.647 76.6152 241.323 112.594 227.895C184.544 201.043 285.59 177.816 398.674 164.591C511.759 151.365 615.437 150.649 691.642 160.174C729.748 164.937 760.955 172.258 783.028 181.839C805.138 191.438 817.908 203.225 819.498 216.823Z" stroke="url(#paint2_linear_3990_3146)"/>
<defs>
<linearGradient id="paint0_linear_3990_3146" x1="264.663" y1="198.18" x2="569.682" y2="249.676" gradientUnits="userSpaceOnUse">
<stop stop-color="#D9D9D9" stop-opacity="0.05"/>
<stop offset="1" stop-color="#9353D3"/>
</linearGradient>
<linearGradient id="paint1_linear_3990_3146" x1="339.101" y1="108.488" x2="508.968" y2="406.005" gradientUnits="userSpaceOnUse">
<stop stop-color="#D9D9D9" stop-opacity="0.05"/>
<stop offset="1" stop-color="#9353D3"/>
</linearGradient>
<linearGradient id="paint2_linear_3990_3146" x1="267.355" y1="179.446" x2="491.227" y2="410.213" gradientUnits="userSpaceOnUse">
<stop stop-color="#D9D9D9" stop-opacity="0.05"/>
<stop offset="1" stop-color="#9353D3"/>
</linearGradient>
</defs>
</svg>
