<svg width="793" height="715" viewBox="0 0 793 715" fill="none" xmlns="http://www.w3.org/2000/svg">
<circle cx="21.9681" cy="108.937" r="21.3348" fill="url(#paint0_linear_3988_2764)" fill-opacity="0.5"/>
<circle cx="21.9678" cy="245.48" r="21.3348" fill="url(#paint1_linear_3988_2764)" fill-opacity="0.5"/>
<circle cx="21.9678" cy="382.022" r="21.3348" fill="url(#paint2_linear_3988_2764)" fill-opacity="0.5"/>
<circle cx="21.9681" cy="518.565" r="21.3348" fill="url(#paint3_linear_3988_2764)" fill-opacity="0.5"/>
<circle cx="21.9678" cy="655.107" r="21.3348" fill="url(#paint4_linear_3988_2764)" fill-opacity="0.5"/>
<circle cx="158.511" cy="108.937" r="21.3348" fill="url(#paint5_linear_3988_2764)" fill-opacity="0.5"/>
<circle cx="158.51" cy="245.48" r="21.3348" fill="url(#paint6_linear_3988_2764)" fill-opacity="0.5"/>
<circle cx="158.511" cy="382.022" r="21.3348" fill="url(#paint7_linear_3988_2764)" fill-opacity="0.5"/>
<circle cx="158.51" cy="518.565" r="21.3348" fill="url(#paint8_linear_3988_2764)" fill-opacity="0.5"/>
<circle cx="158.511" cy="655.107" r="21.3348" fill="url(#paint9_linear_3988_2764)" fill-opacity="0.5"/>
<circle cx="326.818" cy="26.7161" r="21.3348" fill="url(#paint10_linear_3988_2764)" fill-opacity="0.5"/>
<circle cx="295.053" cy="245.48" r="21.3348" fill="url(#paint11_linear_3988_2764)" fill-opacity="0.5"/>
<circle cx="295.053" cy="382.022" r="21.3348" fill="url(#paint12_linear_3988_2764)" fill-opacity="0.5"/>
<path d="M316.388 518.565C316.388 530.348 306.836 539.9 295.053 539.9C283.27 539.9 273.718 530.348 273.718 518.565C273.718 506.782 283.27 497.23 295.053 497.23C306.836 497.23 316.388 506.782 316.388 518.565Z" fill="url(#paint13_linear_3988_2764)" fill-opacity="0.5"/>
<circle cx="246.014" cy="679.614" r="21.3348" fill="url(#paint14_linear_3988_2764)" fill-opacity="0.5"/>
<circle cx="431.595" cy="108.937" r="21.3348" fill="url(#paint15_linear_3988_2764)" fill-opacity="0.5"/>
<circle cx="431.595" cy="245.48" r="21.3348" fill="url(#paint16_linear_3988_2764)" fill-opacity="0.5"/>
<circle cx="431.595" cy="382.022" r="21.3348" fill="url(#paint17_linear_3988_2764)" fill-opacity="0.5"/>
<circle cx="431.595" cy="518.565" r="21.3348" fill="url(#paint18_linear_3988_2764)"/>
<circle cx="429.208" cy="693.31" r="21.3348" fill="url(#paint19_linear_3988_2764)"/>
<path d="M615.121 21.3516C615.121 33.1345 605.569 42.6864 593.786 42.6864C582.003 42.6864 572.451 33.1345 572.451 21.3516C572.451 9.56874 582.003 0.0168457 593.786 0.0168457C605.569 0.0168457 615.121 9.56874 615.121 21.3516Z" fill="url(#paint20_linear_3988_2764)"/>
<circle cx="568.138" cy="245.48" r="21.3348" fill="url(#paint21_linear_3988_2764)"/>
<circle cx="643.256" cy="391.093" r="21.3348" fill="url(#paint22_linear_3988_2764)"/>
<circle cx="770.849" cy="496.063" r="21.3348" fill="url(#paint23_linear_3988_2764)"/>
<path d="M589.473 655.107C589.473 666.89 579.921 676.442 568.138 676.442C556.355 676.442 546.803 666.89 546.803 655.107C546.803 643.324 556.355 633.772 568.138 633.772C579.921 633.772 589.473 643.324 589.473 655.107Z" fill="url(#paint24_linear_3988_2764)"/>
<defs>
<linearGradient id="paint0_linear_3988_2764" x1="43.3028" y1="96.6197" x2="0.633301" y2="121.255" gradientUnits="userSpaceOnUse">
<stop offset="0.125" stop-color="#A953FF"/>
<stop offset="1" stop-color="white" stop-opacity="0"/>
</linearGradient>
<linearGradient id="paint1_linear_3988_2764" x1="43.3026" y1="233.162" x2="0.633057" y2="257.798" gradientUnits="userSpaceOnUse">
<stop offset="0.125" stop-color="#A953FF"/>
<stop offset="1" stop-color="white" stop-opacity="0"/>
</linearGradient>
<linearGradient id="paint2_linear_3988_2764" x1="43.3026" y1="369.705" x2="0.633057" y2="394.34" gradientUnits="userSpaceOnUse">
<stop offset="0.125" stop-color="#A953FF"/>
<stop offset="1" stop-color="white" stop-opacity="0"/>
</linearGradient>
<linearGradient id="paint3_linear_3988_2764" x1="43.3028" y1="506.247" x2="0.633301" y2="530.882" gradientUnits="userSpaceOnUse">
<stop offset="0.125" stop-color="#A953FF"/>
<stop offset="1" stop-color="white" stop-opacity="0"/>
</linearGradient>
<linearGradient id="paint4_linear_3988_2764" x1="43.3026" y1="642.79" x2="0.633057" y2="667.425" gradientUnits="userSpaceOnUse">
<stop offset="0.125" stop-color="#A953FF"/>
<stop offset="1" stop-color="white" stop-opacity="0"/>
</linearGradient>
<linearGradient id="paint5_linear_3988_2764" x1="179.845" y1="96.6197" x2="137.176" y2="121.255" gradientUnits="userSpaceOnUse">
<stop offset="0.125" stop-color="#A953FF"/>
<stop offset="1" stop-color="white" stop-opacity="0"/>
</linearGradient>
<linearGradient id="paint6_linear_3988_2764" x1="179.845" y1="233.162" x2="137.176" y2="257.798" gradientUnits="userSpaceOnUse">
<stop offset="0.125" stop-color="#A953FF"/>
<stop offset="1" stop-color="white" stop-opacity="0"/>
</linearGradient>
<linearGradient id="paint7_linear_3988_2764" x1="179.845" y1="369.705" x2="137.176" y2="394.34" gradientUnits="userSpaceOnUse">
<stop offset="0.125" stop-color="#A953FF"/>
<stop offset="1" stop-color="white" stop-opacity="0"/>
</linearGradient>
<linearGradient id="paint8_linear_3988_2764" x1="179.845" y1="506.247" x2="137.176" y2="530.882" gradientUnits="userSpaceOnUse">
<stop offset="0.125" stop-color="#A953FF"/>
<stop offset="1" stop-color="white" stop-opacity="0"/>
</linearGradient>
<linearGradient id="paint9_linear_3988_2764" x1="179.845" y1="642.79" x2="137.176" y2="667.425" gradientUnits="userSpaceOnUse">
<stop offset="0.125" stop-color="#A953FF"/>
<stop offset="1" stop-color="white" stop-opacity="0"/>
</linearGradient>
<linearGradient id="paint10_linear_3988_2764" x1="348.153" y1="14.3985" x2="305.483" y2="39.0337" gradientUnits="userSpaceOnUse">
<stop offset="0.125" stop-color="#A953FF"/>
<stop offset="1" stop-color="white" stop-opacity="0"/>
</linearGradient>
<linearGradient id="paint11_linear_3988_2764" x1="316.388" y1="233.162" x2="273.718" y2="257.797" gradientUnits="userSpaceOnUse">
<stop offset="0.125" stop-color="#A953FF"/>
<stop offset="1" stop-color="white" stop-opacity="0"/>
</linearGradient>
<linearGradient id="paint12_linear_3988_2764" x1="316.388" y1="369.705" x2="273.718" y2="394.34" gradientUnits="userSpaceOnUse">
<stop offset="0.125" stop-color="#A953FF"/>
<stop offset="1" stop-color="white" stop-opacity="0"/>
</linearGradient>
<linearGradient id="paint13_linear_3988_2764" x1="316.388" y1="506.247" x2="273.718" y2="530.882" gradientUnits="userSpaceOnUse">
<stop offset="0.125" stop-color="#A953FF"/>
<stop offset="1" stop-color="white" stop-opacity="0"/>
</linearGradient>
<linearGradient id="paint14_linear_3988_2764" x1="267.349" y1="667.296" x2="224.679" y2="691.932" gradientUnits="userSpaceOnUse">
<stop offset="0.125" stop-color="#A953FF"/>
<stop offset="1" stop-color="white" stop-opacity="0"/>
</linearGradient>
<linearGradient id="paint15_linear_3988_2764" x1="452.93" y1="96.6197" x2="410.261" y2="121.255" gradientUnits="userSpaceOnUse">
<stop offset="0.125" stop-color="#A953FF"/>
<stop offset="1" stop-color="white" stop-opacity="0"/>
</linearGradient>
<linearGradient id="paint16_linear_3988_2764" x1="452.93" y1="233.162" x2="410.261" y2="257.797" gradientUnits="userSpaceOnUse">
<stop offset="0.125" stop-color="#A953FF"/>
<stop offset="1" stop-color="white" stop-opacity="0"/>
</linearGradient>
<linearGradient id="paint17_linear_3988_2764" x1="452.93" y1="369.705" x2="410.26" y2="394.34" gradientUnits="userSpaceOnUse">
<stop offset="0.125" stop-color="#A953FF"/>
<stop offset="1" stop-color="white" stop-opacity="0"/>
</linearGradient>
<linearGradient id="paint18_linear_3988_2764" x1="452.93" y1="506.247" x2="410.261" y2="530.882" gradientUnits="userSpaceOnUse">
<stop offset="0.125" stop-color="#A953FF"/>
<stop offset="1" stop-color="white" stop-opacity="0"/>
</linearGradient>
<linearGradient id="paint19_linear_3988_2764" x1="450.543" y1="680.992" x2="407.873" y2="705.627" gradientUnits="userSpaceOnUse">
<stop offset="0.125" stop-color="#A953FF"/>
<stop offset="1" stop-color="white" stop-opacity="0"/>
</linearGradient>
<linearGradient id="paint20_linear_3988_2764" x1="589.473" y1="96.6199" x2="546.803" y2="121.255" gradientUnits="userSpaceOnUse">
<stop offset="0.125" stop-color="#A953FF"/>
<stop offset="1" stop-color="white" stop-opacity="0"/>
</linearGradient>
<linearGradient id="paint21_linear_3988_2764" x1="589.472" y1="233.162" x2="546.803" y2="257.798" gradientUnits="userSpaceOnUse">
<stop offset="0.125" stop-color="#A953FF"/>
<stop offset="1" stop-color="white" stop-opacity="0"/>
</linearGradient>
<linearGradient id="paint22_linear_3988_2764" x1="664.591" y1="378.775" x2="621.921" y2="403.411" gradientUnits="userSpaceOnUse">
<stop offset="0.125" stop-color="#A953FF"/>
<stop offset="1" stop-color="#A953FF" stop-opacity="0.25"/>
</linearGradient>
<linearGradient id="paint23_linear_3988_2764" x1="792.184" y1="483.745" x2="749.515" y2="508.381" gradientUnits="userSpaceOnUse">
<stop offset="0.125" stop-color="#A953FF"/>
<stop offset="1" stop-color="white" stop-opacity="0"/>
</linearGradient>
<linearGradient id="paint24_linear_3988_2764" x1="589.473" y1="642.79" x2="546.803" y2="667.425" gradientUnits="userSpaceOnUse">
<stop offset="0.125" stop-color="#A953FF"/>
<stop offset="1" stop-color="white" stop-opacity="0"/>
</linearGradient>
</defs>
</svg>
