<svg width="72" height="33" viewBox="0 0 72 33" fill="none" xmlns="http://www.w3.org/2000/svg">
<g clip-path="url(#clip0_3988_3102)">
<path fill-rule="evenodd" clip-rule="evenodd" d="M51.7336 11.2926C51.7993 11.2926 51.8643 11.2793 51.9246 11.2534C51.985 11.2275 52.0394 11.1896 52.0847 11.1421L52.7887 10.4108C52.832 10.3654 52.8839 10.3293 52.9415 10.3045C52.9991 10.2798 53.0611 10.2669 53.1238 10.2668H53.1529C53.2856 10.2668 53.4136 10.3232 53.5012 10.4239L54.0941 11.0922C54.2071 11.2192 54.368 11.2926 54.5384 11.2926H56.1261C55.3543 10.2648 54.3537 9.43078 53.2036 8.85672C52.0536 8.28267 50.7856 7.98433 49.5002 7.98535C48.2147 7.98419 46.9465 8.28245 45.7963 8.85651C44.6461 9.43058 43.6453 10.2647 42.8734 11.2926L51.7336 11.2926ZM52.5713 13.5261H57.3214C57.5492 14.1755 57.6979 14.8606 57.7572 15.5712L51.5953 15.5712C51.5111 15.5712 51.4279 15.5533 51.3512 15.5188C51.2744 15.4842 51.2059 15.4338 51.1501 15.3708L50.5572 14.7025C50.5136 14.6531 50.46 14.6135 50.4 14.5864C50.3399 14.5593 50.2748 14.5453 50.2089 14.5454H50.1807C50.1179 14.5454 50.0557 14.5581 49.9979 14.5829C49.9402 14.6076 49.888 14.6439 49.8447 14.6894L49.1416 15.4216C49.0964 15.4691 49.0419 15.507 48.9815 15.5328C48.9212 15.5587 48.8562 15.5721 48.7906 15.5722H41.2424C41.2997 14.8747 41.4458 14.1875 41.6772 13.527H49.6725C49.9238 13.527 50.1619 13.4188 50.3294 13.2315L50.8376 12.6574C50.8812 12.6079 50.9348 12.5683 50.9948 12.5412C51.0549 12.514 51.12 12.5 51.1859 12.5C51.2518 12.5 51.3169 12.514 51.377 12.5412C51.437 12.5683 51.4906 12.6079 51.5341 12.6574L52.1271 13.3256C52.24 13.4526 52.4019 13.5261 52.5713 13.5261ZM46.1619 19.719C46.1164 19.7665 46.0617 19.8042 46.0012 19.8299C45.9407 19.8557 45.8756 19.8688 45.8099 19.8686H42.0339C41.7175 19.2137 41.4897 18.5196 41.3562 17.8046H46.7304C46.9816 17.8046 47.2198 17.6974 47.3864 17.5091L47.8946 16.935C47.9381 16.8856 47.9917 16.8459 48.0518 16.8188C48.1118 16.7917 48.1769 16.7776 48.2428 16.7776C48.3087 16.7776 48.3738 16.7917 48.4339 16.8188C48.4939 16.8459 48.5475 16.8856 48.5911 16.935L49.184 17.6032C49.2969 17.7312 49.4588 17.8037 49.6292 17.8037H57.6433C57.5098 18.519 57.2819 19.2134 56.9656 19.8686H48.6155C48.5314 19.8686 48.4482 19.8508 48.3714 19.8162C48.2947 19.7816 48.2262 19.7312 48.1704 19.6682L47.5774 18.9999C47.5338 18.9505 47.4803 18.911 47.4202 18.8838C47.3602 18.8567 47.2951 18.8427 47.2292 18.8428H47.2009C47.1381 18.8428 47.0759 18.8555 47.0182 18.8803C46.9604 18.905 46.9083 18.9413 46.8649 18.9868L46.1619 19.719ZM46.3727 21.9157H55.5586C54.784 22.7479 53.8462 23.4113 52.8036 23.8646C51.761 24.3179 50.6361 24.5512 49.4993 24.5501C48.3625 24.5513 47.2377 24.3181 46.1951 23.865C45.1525 23.4119 44.2146 22.7486 43.44 21.9166H43.4739C43.7252 21.9166 43.9633 21.8084 44.1299 21.6211L44.6381 21.047C44.6817 20.9976 44.7352 20.9579 44.7953 20.9308C44.8553 20.9037 44.9205 20.8896 44.9864 20.8896C45.0522 20.8896 45.1174 20.9037 45.1774 20.9308C45.2375 20.9579 45.291 20.9976 45.3346 21.047L45.9275 21.7152C46.0405 21.8423 46.2024 21.9157 46.3727 21.9157ZM12.8574 24.0145L11.1708 19.9204H3.63576L1.94918 24.0145H0L7.392 8.519L14.8066 24.0126H12.8574V24.0145ZM4.272 18.3675H10.5139L7.38259 11.7661L4.272 18.3675ZM17.4993 8.51994L17.4993 24.0136H19.3176L19.3176 17.4046H21.7929C25.0776 17.4046 26.9619 15.895 26.9619 12.9839C26.9619 10.0738 25.1878 8.51994 21.8136 8.51994H17.4993ZM21.3769 15.7858H19.3176V10.1388H21.3769C23.9614 10.1388 25.1228 11.0366 25.1228 12.9839C25.1228 14.9322 23.984 15.7858 21.3769 15.7858ZM33.5652 10.183L28.2202 10.183V8.51994L40.7275 8.51994V10.183L35.3826 10.183V24.0136H33.5642L33.5652 10.183ZM61.8824 20.1294L60.3162 21.191C61.5642 23.511 63.2292 24.4286 65.6386 24.4286C68.5082 24.4286 70.5233 22.4371 70.5233 20.0964C70.5233 17.9505 69.6461 16.6159 66.0762 14.9971C63.3384 13.7491 62.7031 13.0705 62.7031 11.8894C62.7031 10.6206 63.6885 9.67947 65.376 9.67947C66.7558 9.67947 67.5661 10.2705 68.2231 11.2983L68.5958 11.3868L69.8664 10.5115C69.0334 9.02253 67.5661 8.10394 65.4193 8.10394C62.5064 8.10394 60.8198 9.78865 60.8198 11.9336C60.8198 13.9025 61.9153 15.2814 65.1351 16.6159C67.9388 17.7764 68.64 18.7176 68.64 20.1181C68.64 21.6061 67.3911 22.8315 65.6169 22.8315C64.0179 22.8315 62.9666 22.1312 62.0028 20.3806L61.8824 20.1294Z" fill="#A1A1AA"/>
</g>
<defs>
<clipPath id="clip0_3988_3102">
<rect width="71.5294" height="32" fill="white" transform="translate(0 0.262939)"/>
</clipPath>
</defs>
</svg>
